<?xml version="1.0" encoding="utf-8"?>
<!-- Generator: Adobe Illustrator 18.1.1, SVG Export Plug-In . SVG Version: 6.00 Build 0)  -->
<!DOCTYPE svg PUBLIC "-//W3C//DTD SVG 1.1//EN" "http://www.w3.org/Graphics/SVG/1.1/DTD/svg11.dtd">
<svg version="1.1" id="Layer_1" xmlns="http://www.w3.org/2000/svg" xmlns:xlink="http://www.w3.org/1999/xlink" x="0px" y="0px"
	 width="24px" height="24px" viewBox="0 0 24 24" enable-background="new 0 0 24 24" xml:space="preserve">
<g>
	<path fill="#505050" d="M10.1,9V7.8l2.3-2.1c0.1-0.1,0.3-0.3,0.3-0.4c0.1-0.1,0.1-0.3,0.1-0.5c0-0.2-0.1-0.4-0.2-0.5
		c-0.1-0.1-0.3-0.2-0.5-0.2c-0.2,0-0.4,0.1-0.6,0.2c-0.1,0.2-0.2,0.4-0.3,0.6L10,4.9c0-0.3,0.1-0.6,0.2-0.8c0.1-0.2,0.3-0.4,0.5-0.6
		c0.2-0.2,0.4-0.3,0.7-0.4C11.7,3,11.9,3,12.2,3c0.3,0,0.5,0,0.8,0.1c0.3,0.1,0.5,0.2,0.7,0.3C13.9,3.6,14,3.8,14.2,4
		c0.1,0.2,0.2,0.5,0.2,0.8c0,0.2,0,0.4-0.1,0.6c-0.1,0.2-0.1,0.3-0.2,0.5c-0.1,0.1-0.2,0.3-0.3,0.4c-0.1,0.1-0.3,0.2-0.4,0.4L12,7.8
		h2.4V9H10.1z"/>
	<path fill="#505050" d="M20.6,6c0,0.5-0.1,1-0.3,1.4c-0.2,0.4-0.5,0.7-0.8,0.9c-0.3,0.2-0.7,0.4-1.1,0.5C18.1,8.9,17.6,9,17.2,9H15
		V3h2.2c0.4,0,0.8,0,1.3,0.1c0.4,0.1,0.8,0.3,1.1,0.5c0.3,0.2,0.6,0.5,0.8,0.9C20.5,4.9,20.6,5.4,20.6,6z M19.1,6
		c0-0.3-0.1-0.6-0.2-0.8c-0.1-0.2-0.3-0.4-0.4-0.5c-0.2-0.1-0.4-0.2-0.6-0.3c-0.2-0.1-0.5-0.1-0.7-0.1h-0.7v3.5h0.7
		c0.3,0,0.5,0,0.7-0.1c0.2-0.1,0.5-0.2,0.6-0.3c0.2-0.1,0.3-0.3,0.4-0.5C19,6.6,19.1,6.3,19.1,6z"/>
</g>
<g display="none">
	<path display="inline" fill="#505050" d="M18-3l-2,2h-2l2-2H18 M20.4-4H18h-2h-0.4l-0.3,0.3l-2,2L11.6,0H14h2h0.4l0.3-0.3l2-2
		L20.4-4L20.4-4z"/>
</g>
<g>
	<path fill="#505050" d="M8,16v2l-2,1l-2-1v-2H8 M9,15H8H4H3v1v2v0.6l0.6,0.3l2,1L6,20.1l0.4-0.2l2-1L9,18.6V18v-2V15L9,15z"/>
</g>
<polyline fill="none" stroke="#505050" stroke-miterlimit="10" points="3.5,6 3.5,8.5 5.6,8.5 5.6,10.5 8.5,10.5 8.5,12.5 
	10.5,12.5 10.5,15 "/>
<polygon fill="none" stroke="#505050" stroke-miterlimit="10" points="12.5,16.9 15,15.5 20,14 17.5,19.8 15,21.3 12.5,19.8 "/>
</svg>
